<mxfile host="app.diagrams.net" agent="Mozilla/5.0 (Windows NT 10.0; Win64; x64) AppleWebKit/537.36 (KHTML, like Gecko) Chrome/132.0.0.0 YaBrowser/25.2.0.0 Safari/537.36" version="26.1.0">
  <diagram name="Страница — 1" id="Jb-5Hu8HWLz_g-Zm4u8E">
    <mxGraphModel dx="1542" dy="872" grid="1" gridSize="10" guides="1" tooltips="1" connect="1" arrows="1" fold="1" page="1" pageScale="1" pageWidth="3000" pageHeight="3000" math="0" shadow="0">
      <root>
        <mxCell id="0" />
        <mxCell id="1" parent="0" />
        <mxCell id="6FAnHJaDgQSI7gQvsbUK-6" value="" style="edgeStyle=orthogonalEdgeStyle;rounded=0;orthogonalLoop=1;jettySize=auto;html=1;" parent="1" source="6FAnHJaDgQSI7gQvsbUK-2" target="6FAnHJaDgQSI7gQvsbUK-5" edge="1">
          <mxGeometry relative="1" as="geometry" />
        </mxCell>
        <mxCell id="6FAnHJaDgQSI7gQvsbUK-7" value="&lt;font style=&quot;font-size: 16px;&quot;&gt;Да&lt;/font&gt;" style="edgeLabel;html=1;align=center;verticalAlign=middle;resizable=0;points=[];" parent="6FAnHJaDgQSI7gQvsbUK-6" vertex="1" connectable="0">
          <mxGeometry x="-0.191" y="2" relative="1" as="geometry">
            <mxPoint x="17" as="offset" />
          </mxGeometry>
        </mxCell>
        <mxCell id="6FAnHJaDgQSI7gQvsbUK-2" value="Админ отправил&amp;nbsp;&lt;div&gt;ссылку на бот?&lt;/div&gt;" style="rhombus;whiteSpace=wrap;html=1;rounded=0;fillColor=none;" parent="1" vertex="1">
          <mxGeometry x="1790" y="590" width="140" height="90" as="geometry" />
        </mxCell>
        <mxCell id="6FAnHJaDgQSI7gQvsbUK-5" value="Приветственное сообщение" style="rounded=0;whiteSpace=wrap;html=1;" parent="1" vertex="1">
          <mxGeometry x="1950" y="700" width="110" height="60" as="geometry" />
        </mxCell>
        <mxCell id="6FAnHJaDgQSI7gQvsbUK-30" value="" style="edgeStyle=orthogonalEdgeStyle;rounded=0;orthogonalLoop=1;jettySize=auto;html=1;" parent="1" source="6FAnHJaDgQSI7gQvsbUK-24" target="6FAnHJaDgQSI7gQvsbUK-29" edge="1">
          <mxGeometry relative="1" as="geometry" />
        </mxCell>
        <mxCell id="6FAnHJaDgQSI7gQvsbUK-31" value="&lt;span style=&quot;text-wrap-mode: wrap; background-color: rgb(251, 251, 251);&quot;&gt;&lt;font style=&quot;font-size: 16px;&quot;&gt;/create_poll&lt;/font&gt;&lt;/span&gt;" style="edgeLabel;html=1;align=center;verticalAlign=middle;resizable=0;points=[];" parent="6FAnHJaDgQSI7gQvsbUK-30" vertex="1" connectable="0">
          <mxGeometry x="-0.15" y="-1" relative="1" as="geometry">
            <mxPoint as="offset" />
          </mxGeometry>
        </mxCell>
        <mxCell id="6FAnHJaDgQSI7gQvsbUK-33" value="" style="edgeStyle=orthogonalEdgeStyle;rounded=0;orthogonalLoop=1;jettySize=auto;html=1;" parent="1" source="6FAnHJaDgQSI7gQvsbUK-24" target="6FAnHJaDgQSI7gQvsbUK-32" edge="1">
          <mxGeometry relative="1" as="geometry" />
        </mxCell>
        <mxCell id="6FAnHJaDgQSI7gQvsbUK-34" value="&lt;font style=&quot;font-size: 16px;&quot;&gt;/check_payments&lt;/font&gt;" style="edgeLabel;html=1;align=center;verticalAlign=middle;resizable=0;points=[];" parent="6FAnHJaDgQSI7gQvsbUK-33" vertex="1" connectable="0">
          <mxGeometry x="-0.2951" y="5" relative="1" as="geometry">
            <mxPoint x="1" as="offset" />
          </mxGeometry>
        </mxCell>
        <mxCell id="6FAnHJaDgQSI7gQvsbUK-36" value="" style="edgeStyle=orthogonalEdgeStyle;rounded=0;orthogonalLoop=1;jettySize=auto;html=1;" parent="1" source="6FAnHJaDgQSI7gQvsbUK-24" target="6FAnHJaDgQSI7gQvsbUK-35" edge="1">
          <mxGeometry relative="1" as="geometry" />
        </mxCell>
        <mxCell id="6FAnHJaDgQSI7gQvsbUK-37" value="&lt;font style=&quot;font-size: 16px;&quot;&gt;/edit_list&lt;/font&gt;" style="edgeLabel;html=1;align=center;verticalAlign=middle;resizable=0;points=[];" parent="6FAnHJaDgQSI7gQvsbUK-36" vertex="1" connectable="0">
          <mxGeometry x="-0.0147" relative="1" as="geometry">
            <mxPoint as="offset" />
          </mxGeometry>
        </mxCell>
        <mxCell id="6FAnHJaDgQSI7gQvsbUK-24" value="&lt;div style=&quot;font-family: Consolas, &amp;quot;Courier New&amp;quot;, monospace; line-height: 19px; white-space: pre;&quot;&gt;&lt;font&gt;/create_poll&lt;/font&gt;&lt;/div&gt;&lt;div style=&quot;font-family: Consolas, &amp;quot;Courier New&amp;quot;, monospace; line-height: 19px; white-space: pre;&quot;&gt;&lt;div style=&quot;line-height: 19px;&quot;&gt;&lt;span&gt;&lt;font&gt;/check_payments&lt;/font&gt;&lt;/span&gt;&lt;/div&gt;&lt;div style=&quot;line-height: 19px;&quot;&gt;&lt;div style=&quot;line-height: 19px;&quot;&gt;&lt;font&gt;/edit_list&lt;/font&gt;&lt;/div&gt;&lt;div style=&quot;line-height: 19px;&quot;&gt;&lt;div style=&quot;line-height: 19px;&quot;&gt;&lt;font&gt;/confirm_list&lt;/font&gt;&lt;/div&gt;&lt;/div&gt;&lt;/div&gt;&lt;/div&gt;" style="rhombus;whiteSpace=wrap;html=1;fillColor=none;" parent="1" vertex="1">
          <mxGeometry x="1260" y="280" width="190" height="140" as="geometry" />
        </mxCell>
        <mxCell id="6FAnHJaDgQSI7gQvsbUK-29" value="создать опрос" style="whiteSpace=wrap;html=1;fillColor=none;" parent="1" vertex="1">
          <mxGeometry x="1295" y="540" width="120" height="60" as="geometry" />
        </mxCell>
        <mxCell id="6FAnHJaDgQSI7gQvsbUK-32" value="&lt;div style=&quot;font-family: Consolas, &amp;quot;Courier New&amp;quot;, monospace; font-size: 14px; line-height: 19px; white-space: pre;&quot;&gt;&lt;span&gt;проверка&lt;/span&gt;&lt;span style=&quot;background-color: light-dark(#ffffff, var(--ge-dark-color, #121212));&quot;&gt; &lt;/span&gt;&lt;/div&gt;&lt;div style=&quot;font-family: Consolas, &amp;quot;Courier New&amp;quot;, monospace; font-size: 14px; line-height: 19px; white-space: pre;&quot;&gt;&lt;span style=&quot;background-color: light-dark(#ffffff, var(--ge-dark-color, #121212));&quot;&gt;статуса &lt;/span&gt;&lt;span&gt;оплат&lt;/span&gt;&lt;/div&gt;" style="whiteSpace=wrap;html=1;fillColor=none;" parent="1" vertex="1">
          <mxGeometry x="1560" y="110" width="120" height="60" as="geometry" />
        </mxCell>
        <mxCell id="6FAnHJaDgQSI7gQvsbUK-35" value="&lt;div style=&quot;font-family: Consolas, &amp;quot;Courier New&amp;quot;, monospace; font-size: 14px; line-height: 19px; white-space: pre;&quot;&gt;&lt;span&gt;редактирование&lt;/span&gt;&lt;/div&gt;&lt;div style=&quot;font-family: Consolas, &amp;quot;Courier New&amp;quot;, monospace; font-size: 14px; line-height: 19px; white-space: pre;&quot;&gt;&lt;span&gt; списка&lt;/span&gt;&lt;/div&gt;" style="whiteSpace=wrap;html=1;fillColor=none;" parent="1" vertex="1">
          <mxGeometry x="1295" y="100" width="120" height="60" as="geometry" />
        </mxCell>
        <mxCell id="6FAnHJaDgQSI7gQvsbUK-38" value="Подтверждение списка" style="rounded=0;whiteSpace=wrap;html=1;fillColor=none;" parent="1" vertex="1">
          <mxGeometry x="1540" y="460" width="120" height="60" as="geometry" />
        </mxCell>
        <mxCell id="6FAnHJaDgQSI7gQvsbUK-40" value="" style="endArrow=classic;html=1;rounded=0;entryX=0;entryY=0.25;entryDx=0;entryDy=0;exitX=1;exitY=1;exitDx=0;exitDy=0;" parent="1" source="6FAnHJaDgQSI7gQvsbUK-24" target="6FAnHJaDgQSI7gQvsbUK-38" edge="1">
          <mxGeometry width="50" height="50" relative="1" as="geometry">
            <mxPoint x="1410" y="425" as="sourcePoint" />
            <mxPoint x="1460" y="375" as="targetPoint" />
          </mxGeometry>
        </mxCell>
        <mxCell id="6FAnHJaDgQSI7gQvsbUK-41" value="&lt;font style=&quot;font-size: 16px;&quot;&gt;/confirm_list&lt;/font&gt;" style="edgeLabel;html=1;align=center;verticalAlign=middle;resizable=0;points=[];" parent="6FAnHJaDgQSI7gQvsbUK-40" vertex="1" connectable="0">
          <mxGeometry x="0.0738" y="2" relative="1" as="geometry">
            <mxPoint y="-1" as="offset" />
          </mxGeometry>
        </mxCell>
        <mxCell id="6FAnHJaDgQSI7gQvsbUK-47" value="" style="edgeStyle=orthogonalEdgeStyle;rounded=0;orthogonalLoop=1;jettySize=auto;html=1;" parent="1" source="6FAnHJaDgQSI7gQvsbUK-44" target="6FAnHJaDgQSI7gQvsbUK-46" edge="1">
          <mxGeometry relative="1" as="geometry" />
        </mxCell>
        <mxCell id="6FAnHJaDgQSI7gQvsbUK-48" value="&lt;font style=&quot;font-size: 16px;&quot;&gt;/start&lt;/font&gt;" style="edgeLabel;html=1;align=center;verticalAlign=middle;resizable=0;points=[];" parent="6FAnHJaDgQSI7gQvsbUK-47" vertex="1" connectable="0">
          <mxGeometry x="-0.1986" y="-3" relative="1" as="geometry">
            <mxPoint as="offset" />
          </mxGeometry>
        </mxCell>
        <mxCell id="6FAnHJaDgQSI7gQvsbUK-44" value="&lt;font style=&quot;font-size: 17px;&quot;&gt;/&lt;font style=&quot;&quot;&gt;start&lt;/font&gt;&lt;/font&gt;&lt;div&gt;&lt;br&gt;&lt;/div&gt;" style="rhombus;whiteSpace=wrap;html=1;fillColor=none;" parent="1" vertex="1">
          <mxGeometry x="1940" y="825" width="130" height="120" as="geometry" />
        </mxCell>
        <mxCell id="6FAnHJaDgQSI7gQvsbUK-51" value="" style="edgeStyle=orthogonalEdgeStyle;rounded=0;orthogonalLoop=1;jettySize=auto;html=1;" parent="1" source="6FAnHJaDgQSI7gQvsbUK-46" target="6FAnHJaDgQSI7gQvsbUK-50" edge="1">
          <mxGeometry relative="1" as="geometry" />
        </mxCell>
        <mxCell id="6FAnHJaDgQSI7gQvsbUK-46" value="&lt;font style=&quot;font-size: 15px;&quot;&gt;Запуск бота&lt;/font&gt;" style="whiteSpace=wrap;html=1;fillColor=none;" parent="1" vertex="1">
          <mxGeometry x="1945" y="1035" width="120" height="60" as="geometry" />
        </mxCell>
        <mxCell id="6FAnHJaDgQSI7gQvsbUK-49" value="" style="endArrow=classic;html=1;rounded=0;entryX=0.5;entryY=0;entryDx=0;entryDy=0;exitX=0.5;exitY=1;exitDx=0;exitDy=0;" parent="1" source="6FAnHJaDgQSI7gQvsbUK-5" target="6FAnHJaDgQSI7gQvsbUK-44" edge="1">
          <mxGeometry width="50" height="50" relative="1" as="geometry">
            <mxPoint x="2000" y="760" as="sourcePoint" />
            <mxPoint x="2056.40625" y="795.625" as="targetPoint" />
          </mxGeometry>
        </mxCell>
        <mxCell id="6FAnHJaDgQSI7gQvsbUK-53" value="" style="edgeStyle=orthogonalEdgeStyle;rounded=0;orthogonalLoop=1;jettySize=auto;html=1;exitX=0.5;exitY=0;exitDx=0;exitDy=0;" parent="1" source="6FAnHJaDgQSI7gQvsbUK-64" edge="1">
          <mxGeometry relative="1" as="geometry">
            <mxPoint x="2659.58" y="1025" as="sourcePoint" />
            <mxPoint x="2659.58" y="905" as="targetPoint" />
          </mxGeometry>
        </mxCell>
        <mxCell id="6FAnHJaDgQSI7gQvsbUK-54" value="&lt;font style=&quot;font-size: 16px;&quot;&gt;/status&lt;/font&gt;" style="edgeLabel;html=1;align=center;verticalAlign=middle;resizable=0;points=[];" parent="6FAnHJaDgQSI7gQvsbUK-53" vertex="1" connectable="0">
          <mxGeometry x="-0.1438" y="1" relative="1" as="geometry">
            <mxPoint as="offset" />
          </mxGeometry>
        </mxCell>
        <mxCell id="6FAnHJaDgQSI7gQvsbUK-56" value="" style="edgeStyle=orthogonalEdgeStyle;rounded=0;orthogonalLoop=1;jettySize=auto;html=1;" parent="1" source="6FAnHJaDgQSI7gQvsbUK-50" target="6FAnHJaDgQSI7gQvsbUK-55" edge="1">
          <mxGeometry relative="1" as="geometry" />
        </mxCell>
        <mxCell id="6FAnHJaDgQSI7gQvsbUK-57" value="&lt;font style=&quot;font-size: 16px;&quot;&gt;/help&lt;/font&gt;" style="edgeLabel;html=1;align=center;verticalAlign=middle;resizable=0;points=[];" parent="6FAnHJaDgQSI7gQvsbUK-56" vertex="1" connectable="0">
          <mxGeometry x="-0.2363" y="-1" relative="1" as="geometry">
            <mxPoint as="offset" />
          </mxGeometry>
        </mxCell>
        <mxCell id="6FAnHJaDgQSI7gQvsbUK-62" value="" style="edgeStyle=orthogonalEdgeStyle;rounded=0;orthogonalLoop=1;jettySize=auto;html=1;" parent="1" source="6FAnHJaDgQSI7gQvsbUK-50" target="6FAnHJaDgQSI7gQvsbUK-61" edge="1">
          <mxGeometry relative="1" as="geometry" />
        </mxCell>
        <mxCell id="6FAnHJaDgQSI7gQvsbUK-63" value="&lt;font style=&quot;font-size: 16px;&quot;&gt;/poll&lt;/font&gt;" style="edgeLabel;html=1;align=center;verticalAlign=middle;resizable=0;points=[];" parent="6FAnHJaDgQSI7gQvsbUK-62" vertex="1" connectable="0">
          <mxGeometry x="-0.2866" y="-2" relative="1" as="geometry">
            <mxPoint as="offset" />
          </mxGeometry>
        </mxCell>
        <mxCell id="6FAnHJaDgQSI7gQvsbUK-50" value="&lt;div&gt;&lt;span style=&quot;background-color: transparent; color: light-dark(rgb(0, 0, 0), rgb(255, 255, 255));&quot;&gt;/poll&lt;/span&gt;&lt;/div&gt;&lt;div&gt;&lt;span style=&quot;background-color: transparent; color: light-dark(rgb(0, 0, 0), rgb(255, 255, 255));&quot;&gt;/help&lt;/span&gt;&lt;/div&gt;" style="rhombus;whiteSpace=wrap;html=1;fillColor=none;" parent="1" vertex="1">
          <mxGeometry x="2190" y="1025" width="80" height="80" as="geometry" />
        </mxCell>
        <mxCell id="6FAnHJaDgQSI7gQvsbUK-52" value="&lt;div style=&quot;font-family: Consolas, &amp;quot;Courier New&amp;quot;, monospace; font-size: 14px; line-height: 19px; white-space: pre;&quot;&gt;&lt;span&gt;проверка своего&lt;/span&gt;&lt;/div&gt;&lt;div style=&quot;font-family: Consolas, &amp;quot;Courier New&amp;quot;, monospace; font-size: 14px; line-height: 19px; white-space: pre;&quot;&gt;&lt;span&gt; статуса оплаты&lt;/span&gt;&lt;/div&gt;" style="whiteSpace=wrap;html=1;fillColor=none;" parent="1" vertex="1">
          <mxGeometry x="2590" y="825" width="140" height="80" as="geometry" />
        </mxCell>
        <mxCell id="6FAnHJaDgQSI7gQvsbUK-55" value="&lt;div style=&quot;font-family: Consolas, &amp;quot;Courier New&amp;quot;, monospace; line-height: 19px; white-space: pre;&quot;&gt;&lt;div style=&quot;&quot;&gt;&lt;span&gt;&lt;font style=&quot;font-size: 16px;&quot;&gt;получение&lt;/font&gt;&lt;/span&gt;&lt;/div&gt;&lt;div style=&quot;&quot;&gt;&lt;span&gt;&lt;font style=&quot;font-size: 16px;&quot;&gt; справки&lt;/font&gt;&lt;/span&gt;&lt;/div&gt;&lt;span style=&quot;font-size: 14px; background-color: rgb(255, 255, 255);&quot;&gt;&lt;br&gt;&lt;/span&gt;&lt;/div&gt;" style="whiteSpace=wrap;html=1;fillColor=none;" parent="1" vertex="1">
          <mxGeometry x="2165" y="1225" width="130" height="80" as="geometry" />
        </mxCell>
        <mxCell id="6FAnHJaDgQSI7gQvsbUK-59" value="" style="endArrow=classic;html=1;rounded=0;entryX=0.405;entryY=0.116;entryDx=0;entryDy=0;entryPerimeter=0;" parent="1" target="6FAnHJaDgQSI7gQvsbUK-2" edge="1">
          <mxGeometry width="50" height="50" relative="1" as="geometry">
            <mxPoint x="1790" y="635" as="sourcePoint" />
            <mxPoint x="1840" y="585" as="targetPoint" />
            <Array as="points">
              <mxPoint x="1690" y="595" />
            </Array>
          </mxGeometry>
        </mxCell>
        <mxCell id="6FAnHJaDgQSI7gQvsbUK-60" value="&lt;font style=&quot;font-size: 16px;&quot;&gt;Нет&lt;/font&gt;" style="edgeLabel;html=1;align=center;verticalAlign=middle;resizable=0;points=[];" parent="6FAnHJaDgQSI7gQvsbUK-59" vertex="1" connectable="0">
          <mxGeometry x="-0.4955" y="1" relative="1" as="geometry">
            <mxPoint x="1" as="offset" />
          </mxGeometry>
        </mxCell>
        <mxCell id="6FAnHJaDgQSI7gQvsbUK-65" value="" style="edgeStyle=orthogonalEdgeStyle;rounded=0;orthogonalLoop=1;jettySize=auto;html=1;" parent="1" source="6FAnHJaDgQSI7gQvsbUK-61" target="6FAnHJaDgQSI7gQvsbUK-64" edge="1">
          <mxGeometry relative="1" as="geometry" />
        </mxCell>
        <mxCell id="6FAnHJaDgQSI7gQvsbUK-61" value="Голосование" style="whiteSpace=wrap;html=1;fillColor=none;" parent="1" vertex="1">
          <mxGeometry x="2400" y="1035" width="120" height="60" as="geometry" />
        </mxCell>
        <mxCell id="6FAnHJaDgQSI7gQvsbUK-64" value="&lt;div&gt;&lt;span style=&quot;background-color: transparent; color: light-dark(rgb(0, 0, 0), rgb(255, 255, 255));&quot;&gt;/poll&lt;/span&gt;&lt;/div&gt;&lt;div&gt;&lt;span style=&quot;background-color: transparent; color: light-dark(rgb(0, 0, 0), rgb(255, 255, 255));&quot;&gt;/help&lt;/span&gt;&lt;/div&gt;&lt;div&gt;&lt;span style=&quot;background-color: transparent; color: light-dark(rgb(0, 0, 0), rgb(255, 255, 255));&quot;&gt;/status&lt;/span&gt;&lt;/div&gt;" style="rhombus;whiteSpace=wrap;html=1;fillColor=none;" parent="1" vertex="1">
          <mxGeometry x="2620" y="1025" width="80" height="80" as="geometry" />
        </mxCell>
        <mxCell id="6FAnHJaDgQSI7gQvsbUK-74" value="" style="endArrow=classic;html=1;rounded=0;entryX=0.921;entryY=0.59;entryDx=0;entryDy=0;entryPerimeter=0;exitX=0.75;exitY=0;exitDx=0;exitDy=0;" parent="1" source="6FAnHJaDgQSI7gQvsbUK-55" target="6FAnHJaDgQSI7gQvsbUK-50" edge="1">
          <mxGeometry width="50" height="50" relative="1" as="geometry">
            <mxPoint x="2260" y="1225" as="sourcePoint" />
            <mxPoint x="2310" y="1175" as="targetPoint" />
          </mxGeometry>
        </mxCell>
        <mxCell id="6FAnHJaDgQSI7gQvsbUK-78" value="" style="endArrow=classic;html=1;rounded=0;entryX=1;entryY=0.5;entryDx=0;entryDy=0;exitX=1;exitY=0.5;exitDx=0;exitDy=0;" parent="1" source="6FAnHJaDgQSI7gQvsbUK-64" target="6FAnHJaDgQSI7gQvsbUK-55" edge="1">
          <mxGeometry width="50" height="50" relative="1" as="geometry">
            <mxPoint x="2725" y="1095" as="sourcePoint" />
            <mxPoint x="2330" y="1295" as="targetPoint" />
            <Array as="points">
              <mxPoint x="2760" y="1065" />
              <mxPoint x="2760" y="1105" />
              <mxPoint x="2760" y="1265" />
            </Array>
          </mxGeometry>
        </mxCell>
        <mxCell id="6FAnHJaDgQSI7gQvsbUK-79" value="&lt;font style=&quot;font-size: 16px;&quot;&gt;/help&lt;/font&gt;" style="edgeLabel;html=1;align=center;verticalAlign=middle;resizable=0;points=[];" parent="6FAnHJaDgQSI7gQvsbUK-78" vertex="1" connectable="0">
          <mxGeometry x="0.1798" y="1" relative="1" as="geometry">
            <mxPoint as="offset" />
          </mxGeometry>
        </mxCell>
        <mxCell id="6FAnHJaDgQSI7gQvsbUK-82" value="" style="endArrow=classic;html=1;rounded=0;exitX=0.5;exitY=1;exitDx=0;exitDy=0;entryX=0.419;entryY=1.019;entryDx=0;entryDy=0;entryPerimeter=0;" parent="1" source="6FAnHJaDgQSI7gQvsbUK-64" target="6FAnHJaDgQSI7gQvsbUK-61" edge="1">
          <mxGeometry width="50" height="50" relative="1" as="geometry">
            <mxPoint x="2640" y="1135" as="sourcePoint" />
            <mxPoint x="2450" y="1145" as="targetPoint" />
            <Array as="points">
              <mxPoint x="2660" y="1145" />
              <mxPoint x="2450" y="1145" />
            </Array>
          </mxGeometry>
        </mxCell>
        <mxCell id="6FAnHJaDgQSI7gQvsbUK-83" value="&lt;font style=&quot;font-size: 16px;&quot;&gt;/poll&lt;/font&gt;" style="edgeLabel;html=1;align=center;verticalAlign=middle;resizable=0;points=[];" parent="6FAnHJaDgQSI7gQvsbUK-82" vertex="1" connectable="0">
          <mxGeometry x="0.1625" y="1" relative="1" as="geometry">
            <mxPoint x="24" as="offset" />
          </mxGeometry>
        </mxCell>
        <mxCell id="DNcha9Pwi-bw8J21Od16-33" value="" style="group" vertex="1" connectable="0" parent="1">
          <mxGeometry x="350" y="355" width="500" height="1355" as="geometry" />
        </mxCell>
        <mxCell id="DNcha9Pwi-bw8J21Od16-2" value="" style="edgeStyle=orthogonalEdgeStyle;rounded=0;orthogonalLoop=1;jettySize=auto;html=1;strokeWidth=2;" edge="1" parent="DNcha9Pwi-bw8J21Od16-33" source="6FAnHJaDgQSI7gQvsbUK-12" target="DNcha9Pwi-bw8J21Od16-1">
          <mxGeometry relative="1" as="geometry" />
        </mxCell>
        <mxCell id="6FAnHJaDgQSI7gQvsbUK-12" value="&lt;font style=&quot;font-size: 15px;&quot;&gt;Начало&lt;/font&gt;" style="ellipse;whiteSpace=wrap;html=1;fillColor=#d5e8d4;strokeColor=#82b366;strokeWidth=2;" parent="DNcha9Pwi-bw8J21Od16-33" vertex="1">
          <mxGeometry x="150" width="80" height="50" as="geometry" />
        </mxCell>
        <mxCell id="DNcha9Pwi-bw8J21Od16-4" value="" style="edgeStyle=orthogonalEdgeStyle;rounded=0;orthogonalLoop=1;jettySize=auto;html=1;" edge="1" parent="DNcha9Pwi-bw8J21Od16-33" source="DNcha9Pwi-bw8J21Od16-1" target="DNcha9Pwi-bw8J21Od16-3">
          <mxGeometry relative="1" as="geometry" />
        </mxCell>
        <mxCell id="DNcha9Pwi-bw8J21Od16-1" value="&lt;font style=&quot;font-size: 15px;&quot;&gt;Админ:&lt;/font&gt;&lt;div&gt;&lt;font style=&quot;font-size: 15px;&quot;&gt;Создание опроса&lt;/font&gt;&lt;/div&gt;" style="whiteSpace=wrap;html=1;fillColor=none;strokeColor=#000000;strokeWidth=2;" vertex="1" parent="DNcha9Pwi-bw8J21Od16-33">
          <mxGeometry x="130" y="125" width="120" height="60" as="geometry" />
        </mxCell>
        <mxCell id="DNcha9Pwi-bw8J21Od16-6" value="" style="edgeStyle=orthogonalEdgeStyle;rounded=0;orthogonalLoop=1;jettySize=auto;html=1;" edge="1" parent="DNcha9Pwi-bw8J21Od16-33" source="DNcha9Pwi-bw8J21Od16-3" target="DNcha9Pwi-bw8J21Od16-5">
          <mxGeometry relative="1" as="geometry" />
        </mxCell>
        <mxCell id="DNcha9Pwi-bw8J21Od16-3" value="&lt;font style=&quot;font-size: 15px;&quot;&gt;Участники:&lt;/font&gt;&lt;div&gt;&lt;font style=&quot;font-size: 15px;&quot;&gt;Голосование&lt;/font&gt;&lt;/div&gt;" style="whiteSpace=wrap;html=1;fillColor=none;strokeColor=#000000;strokeWidth=2;" vertex="1" parent="DNcha9Pwi-bw8J21Od16-33">
          <mxGeometry x="130" y="265" width="120" height="60" as="geometry" />
        </mxCell>
        <mxCell id="DNcha9Pwi-bw8J21Od16-8" value="" style="edgeStyle=orthogonalEdgeStyle;rounded=0;orthogonalLoop=1;jettySize=auto;html=1;" edge="1" parent="DNcha9Pwi-bw8J21Od16-33" source="DNcha9Pwi-bw8J21Od16-5" target="DNcha9Pwi-bw8J21Od16-7">
          <mxGeometry relative="1" as="geometry" />
        </mxCell>
        <mxCell id="DNcha9Pwi-bw8J21Od16-5" value="&lt;font style=&quot;font-size: 15px;&quot;&gt;Отправка QR-кода для оплаты&lt;/font&gt;" style="whiteSpace=wrap;html=1;fillColor=none;strokeColor=#000000;strokeWidth=2;" vertex="1" parent="DNcha9Pwi-bw8J21Od16-33">
          <mxGeometry x="130" y="405" width="120" height="60" as="geometry" />
        </mxCell>
        <mxCell id="DNcha9Pwi-bw8J21Od16-10" value="" style="edgeStyle=orthogonalEdgeStyle;rounded=0;orthogonalLoop=1;jettySize=auto;html=1;" edge="1" parent="DNcha9Pwi-bw8J21Od16-33" source="DNcha9Pwi-bw8J21Od16-7" target="DNcha9Pwi-bw8J21Od16-9">
          <mxGeometry relative="1" as="geometry">
            <Array as="points">
              <mxPoint x="60" y="575" />
              <mxPoint x="60" y="715" />
            </Array>
          </mxGeometry>
        </mxCell>
        <mxCell id="DNcha9Pwi-bw8J21Od16-17" value="ДА" style="edgeLabel;html=1;align=center;verticalAlign=middle;resizable=0;points=[];" vertex="1" connectable="0" parent="DNcha9Pwi-bw8J21Od16-10">
          <mxGeometry x="0.0131" y="-1" relative="1" as="geometry">
            <mxPoint as="offset" />
          </mxGeometry>
        </mxCell>
        <mxCell id="DNcha9Pwi-bw8J21Od16-7" value="&lt;font style=&quot;font-size: 13px;&quot;&gt;Админ:&lt;/font&gt;&lt;div&gt;&lt;font style=&quot;font-size: 13px;&quot;&gt;Подтверждение оплаты&lt;/font&gt;&lt;/div&gt;" style="whiteSpace=wrap;html=1;fillColor=none;strokeColor=#000000;strokeWidth=2;" vertex="1" parent="DNcha9Pwi-bw8J21Od16-33">
          <mxGeometry x="130" y="545" width="120" height="60" as="geometry" />
        </mxCell>
        <mxCell id="DNcha9Pwi-bw8J21Od16-12" value="" style="edgeStyle=orthogonalEdgeStyle;rounded=0;orthogonalLoop=1;jettySize=auto;html=1;" edge="1" parent="DNcha9Pwi-bw8J21Od16-33" source="DNcha9Pwi-bw8J21Od16-9" target="DNcha9Pwi-bw8J21Od16-11">
          <mxGeometry relative="1" as="geometry" />
        </mxCell>
        <mxCell id="DNcha9Pwi-bw8J21Od16-9" value="&lt;font style=&quot;font-size: 15px;&quot;&gt;Формирование списка по приоритетам&lt;/font&gt;" style="whiteSpace=wrap;html=1;fillColor=none;strokeColor=#000000;strokeWidth=2;" vertex="1" parent="DNcha9Pwi-bw8J21Od16-33">
          <mxGeometry y="740" width="120" height="60" as="geometry" />
        </mxCell>
        <mxCell id="DNcha9Pwi-bw8J21Od16-14" value="" style="edgeStyle=orthogonalEdgeStyle;rounded=0;orthogonalLoop=1;jettySize=auto;html=1;" edge="1" parent="DNcha9Pwi-bw8J21Od16-33" source="DNcha9Pwi-bw8J21Od16-11" target="DNcha9Pwi-bw8J21Od16-13">
          <mxGeometry relative="1" as="geometry" />
        </mxCell>
        <mxCell id="DNcha9Pwi-bw8J21Od16-11" value="&lt;font style=&quot;font-size: 15px;&quot;&gt;Проверка и подтверждение списка&lt;/font&gt;" style="whiteSpace=wrap;html=1;fillColor=none;strokeColor=#000000;strokeWidth=2;" vertex="1" parent="DNcha9Pwi-bw8J21Od16-33">
          <mxGeometry y="870" width="120" height="60" as="geometry" />
        </mxCell>
        <mxCell id="DNcha9Pwi-bw8J21Od16-28" value="" style="edgeStyle=orthogonalEdgeStyle;rounded=0;orthogonalLoop=1;jettySize=auto;html=1;" edge="1" parent="DNcha9Pwi-bw8J21Od16-33" source="DNcha9Pwi-bw8J21Od16-13" target="DNcha9Pwi-bw8J21Od16-27">
          <mxGeometry relative="1" as="geometry" />
        </mxCell>
        <mxCell id="DNcha9Pwi-bw8J21Od16-13" value="&lt;span style=&quot;font-size: 15px;&quot;&gt;Запись данных в Google Sheets&lt;/span&gt;" style="whiteSpace=wrap;html=1;fillColor=none;strokeColor=#000000;strokeWidth=2;" vertex="1" parent="DNcha9Pwi-bw8J21Od16-33">
          <mxGeometry y="1005" width="120" height="60" as="geometry" />
        </mxCell>
        <mxCell id="DNcha9Pwi-bw8J21Od16-24" value="" style="curved=1;endArrow=classic;html=1;rounded=0;exitX=1;exitY=0.5;exitDx=0;exitDy=0;entryX=0.5;entryY=1;entryDx=0;entryDy=0;" edge="1" parent="DNcha9Pwi-bw8J21Od16-33" source="DNcha9Pwi-bw8J21Od16-7" target="DNcha9Pwi-bw8J21Od16-7">
          <mxGeometry width="50" height="50" relative="1" as="geometry">
            <mxPoint x="270" y="585" as="sourcePoint" />
            <mxPoint x="210" y="705" as="targetPoint" />
            <Array as="points">
              <mxPoint x="320" y="585" />
              <mxPoint x="270" y="535" />
              <mxPoint x="500" y="545" />
              <mxPoint x="370" y="785" />
            </Array>
          </mxGeometry>
        </mxCell>
        <mxCell id="DNcha9Pwi-bw8J21Od16-26" value="НЕТ" style="edgeLabel;html=1;align=center;verticalAlign=middle;resizable=0;points=[];" vertex="1" connectable="0" parent="DNcha9Pwi-bw8J21Od16-24">
          <mxGeometry x="0.0882" y="1" relative="1" as="geometry">
            <mxPoint as="offset" />
          </mxGeometry>
        </mxCell>
        <mxCell id="DNcha9Pwi-bw8J21Od16-32" value="" style="edgeStyle=orthogonalEdgeStyle;rounded=0;orthogonalLoop=1;jettySize=auto;html=1;" edge="1" parent="DNcha9Pwi-bw8J21Od16-33" source="DNcha9Pwi-bw8J21Od16-27" target="DNcha9Pwi-bw8J21Od16-31">
          <mxGeometry relative="1" as="geometry" />
        </mxCell>
        <mxCell id="DNcha9Pwi-bw8J21Od16-27" value="&lt;font style=&quot;font-size: 15px;&quot;&gt;Сортировка участников&lt;/font&gt;" style="whiteSpace=wrap;html=1;fillColor=none;strokeColor=#000000;strokeWidth=2;" vertex="1" parent="DNcha9Pwi-bw8J21Od16-33">
          <mxGeometry y="1145" width="120" height="60" as="geometry" />
        </mxCell>
        <mxCell id="DNcha9Pwi-bw8J21Od16-31" value="&lt;font style=&quot;font-size: 15px;&quot;&gt;Конец&lt;/font&gt;" style="ellipse;whiteSpace=wrap;html=1;fillColor=#d5e8d4;strokeColor=#82b366;strokeWidth=2;" vertex="1" parent="DNcha9Pwi-bw8J21Od16-33">
          <mxGeometry x="20" y="1275" width="80" height="80" as="geometry" />
        </mxCell>
      </root>
    </mxGraphModel>
  </diagram>
</mxfile>
